<svg id="Layer_1" data-name="Layer 1" xmlns="http://www.w3.org/2000/svg" viewBox="0 0 644.39 420.07"><defs><style>.cls-1,.cls-2,.cls-7,.cls-8{stroke:#000;stroke-miterlimit:10;}.cls-1,.cls-7{stroke-width:3px;}.cls-2{font-size:71.71px;stroke-width:2px;font-family:Phenomena-Thin, Phenomena;font-weight:200;letter-spacing:0.1em;}.cls-3{letter-spacing:0.1em;}.cls-4{letter-spacing:0.11em;}.cls-5{letter-spacing:0.06em;}.cls-6{letter-spacing:0.1em;}.cls-7,.cls-8{stroke-linecap:round;}.cls-8{fill:none;stroke-width:6px;}</style></defs><path class="cls-1" d="M85.5,210.2v77.7c0,16.8-8.55,27.3-23.25,27.3-10,0-14.85-5.4-18.75-12.6-3.9,7.2-9,12.6-18.75,12.6C10.2,315.2,1.5,304.7,1.5,287.9V210.2A1.42,1.42,0,0,1,3,208.7H9a1.42,1.42,0,0,1,1.5,1.5v77.7c0,12.15,4.95,18.9,14.25,18.9,8.55,0,14.25-6.75,14.25-18.9V210.2a1.42,1.42,0,0,1,1.5-1.5h6a1.42,1.42,0,0,1,1.5,1.5v77.7c0,12.15,6,18.9,14.25,18.9,9.45,0,14.25-6.75,14.25-18.9V210.2a1.42,1.42,0,0,1,1.5-1.5h6A1.42,1.42,0,0,1,85.5,210.2Z"/><path class="cls-1" d="M117.15,287.3V235.1c0-16.5,10.5-27.75,25.5-27.75s25.5,11.25,25.5,26.25v55.2c0,15-10.5,26.25-25.5,26.25S117.15,303.8,117.15,287.3Zm42,1.5V233.6c0-10.35-6.75-17.85-16.5-17.85s-16.5,7.5-16.5,19.35v52.2c0,11.85,6.75,19.35,16.5,19.35S159.15,299.15,159.15,288.8Z"/><path class="cls-1" d="M197.85,287.3V235.1c0-16.5,10.5-27.75,25.5-27.75s25.49,11.25,25.49,26.25v55.2c0,15-10.5,26.25-25.49,26.25S197.85,303.8,197.85,287.3Zm42,1.5V233.6c0-10.35-6.75-17.85-16.49-17.85s-16.5,7.5-16.5,19.35v52.2c0,11.85,6.75,19.35,16.5,19.35S239.84,299.15,239.84,288.8Z"/><path class="cls-1" d="M281.69,309.5V212.9c0-2.85,1.65-4.5,4.5-4.5h20.25c15.15,0,24.45,11.25,24.45,26.25V287.9c0,14.85-9.6,26.1-24.45,26.1H286.19C283.34,314,281.69,312.35,281.69,309.5Zm24.75-3.9c9.45,0,15.45-7.5,15.45-17.7V234.65c0-10.35-5.85-17.85-15.45-17.85H290.69v88.8Z"/><path class="cls-1" d="M400,305.6a1.42,1.42,0,0,1,1.5,1.5v5.4A1.42,1.42,0,0,1,400,314h-13.5c-14.4,0-24-11.25-24-25.65V210.2a1.42,1.42,0,0,1,1.5-1.5h6a1.42,1.42,0,0,1,1.5,1.5v78.15c0,9.75,6,17.25,15,17.25Z"/><path class="cls-1" d="M426.29,312.2V234.35c0-16.2,9.9-27,24.75-27s24.75,10.8,24.75,27V312.2a1.42,1.42,0,0,1-1.5,1.5h-6a1.42,1.42,0,0,1-1.5-1.5V275.6h-31.5v36.6a1.42,1.42,0,0,1-1.5,1.5h-6A1.42,1.42,0,0,1,426.29,312.2Zm40.5-45V234.35c0-11.7-5.7-18.6-15.75-18.6s-15.75,6.9-15.75,18.6V267.2Z"/><path class="cls-1" d="M509.39,312.2v-78c0-15.75,9.75-27,24.75-27s24.75,11.25,24.75,27v78a1.42,1.42,0,0,1-1.5,1.5h-6a1.42,1.42,0,0,1-1.5-1.5v-78c0-11.1-6.15-18.6-15.75-18.6s-15.75,7.5-15.75,18.6v78a1.42,1.42,0,0,1-1.5,1.5h-6A1.42,1.42,0,0,1,509.39,312.2Z"/><path class="cls-1" d="M593.69,309.5V212.9c0-2.85,1.65-4.5,4.5-4.5h20.25c15.15,0,24.45,11.25,24.45,26.25V287.9c0,14.85-9.6,26.1-24.45,26.1H598.19C595.34,314,593.69,312.35,593.69,309.5Zm24.75-3.9c9.45,0,15.45-7.5,15.45-17.7V234.65c0-10.35-5.85-17.85-15.45-17.85H602.69v88.8Z"/><text class="cls-2" transform="translate(219.69 404)">C<tspan class="cls-3" x="37.22" y="0">AN</tspan><tspan class="cls-4" x="116.46" y="0">D</tspan><tspan class="cls-5" x="156.12" y="0">L</tspan><tspan class="cls-6" x="184.59" y="0">E</tspan></text><line class="cls-7" x1="182.94" y1="380" x2="2.44" y2="380"/><line class="cls-7" x1="641.94" y1="380" x2="461.44" y2="380"/><line class="cls-8" x1="323.19" y1="3" x2="323.19" y2="169"/><path class="cls-8" d="M323.19,3c.5,2.08,2.95,11.36,12,17a27,27,0,0,0,14,4"/><path class="cls-8" d="M323.19,3a27.92,27.92,0,0,1-12,17,26.92,26.92,0,0,1-14,4"/><path class="cls-8" d="M323.19,34a40.8,40.8,0,0,1-14.66,15,36.37,36.37,0,0,1-18.34,5"/><path class="cls-8" d="M323.19,65a52.39,52.39,0,0,1-16.43,12,53.93,53.93,0,0,1-21.57,5"/><path class="cls-8" d="M323.19,90A58,58,0,0,1,305,106a55.36,55.36,0,0,1-25.83,7"/><path class="cls-8" d="M323.19,126a78.09,78.09,0,0,1-49,19"/><path class="cls-8" d="M323.19,34a40.93,40.93,0,0,0,14.67,15,36.36,36.36,0,0,0,18.33,5"/><path class="cls-8" d="M323.19,65a52.58,52.58,0,0,0,16.44,12,53.92,53.92,0,0,0,21.56,5"/><path class="cls-8" d="M323.19,90a58.14,58.14,0,0,0,18.18,16,55.36,55.36,0,0,0,25.82,7"/><path class="cls-8" d="M323.19,126a78.09,78.09,0,0,0,49,19"/><line class="cls-8" x1="431.19" y1="21" x2="431.19" y2="169"/><path class="cls-8" d="M431.19,21c.5,2.08,2.95,11.36,12,17a27,27,0,0,0,14,4"/><path class="cls-8" d="M431.19,21a27.92,27.92,0,0,1-12,17,26.92,26.92,0,0,1-14,4"/><path class="cls-8" d="M431.19,109a59.59,59.59,0,0,0,46,23"/><path class="cls-8" d="M431.19,109a59.59,59.59,0,0,1-46,23"/><line class="cls-8" x1="213.19" y1="21" x2="213.19" y2="169"/><path class="cls-8" d="M213.19,21c.5,2.08,2.95,11.36,12,17a27,27,0,0,0,14,4"/><path class="cls-8" d="M213.19,21a27.92,27.92,0,0,1-12,17,26.92,26.92,0,0,1-14,4"/><path class="cls-8" d="M213.19,51a40.8,40.8,0,0,1-14.66,15,36.37,36.37,0,0,1-18.34,5"/><path class="cls-8" d="M213.19,82a53.73,53.73,0,0,1-16.86,12,56.61,56.61,0,0,1-22.14,5"/><path class="cls-8" d="M213.19,51a40.93,40.93,0,0,0,14.67,15,36.36,36.36,0,0,0,18.33,5"/><path class="cls-8" d="M213.19,82a53.92,53.92,0,0,0,16.87,12,56.6,56.6,0,0,0,22.13,5"/><path class="cls-8" d="M431.19,51a40.8,40.8,0,0,1-14.66,15,36.37,36.37,0,0,1-18.34,5"/><path class="cls-8" d="M431.19,82a53.73,53.73,0,0,1-16.86,12,56.61,56.61,0,0,1-22.14,5"/><path class="cls-8" d="M431.19,51a40.93,40.93,0,0,0,14.67,15,36.36,36.36,0,0,0,18.33,5"/><path class="cls-8" d="M431.19,82a53.92,53.92,0,0,0,16.87,12,56.6,56.6,0,0,0,22.13,5"/><path class="cls-8" d="M213.19,109a59.59,59.59,0,0,0,46,23"/><path class="cls-8" d="M213.19,109a59.59,59.59,0,0,1-46,23"/></svg>