<?xml version="1.0" encoding="UTF-8"?>
<svg version="1.1" xmlns="http://www.w3.org/2000/svg" width="646" height="407">
<path d="M0 0 C1.19109375 0.00773438 1.19109375 0.00773438 2.40625 0.015625 C3.2003125 0.01046875 3.994375 0.0053125 4.8125 0 C6.90625 0.265625 6.90625 0.265625 8.90625 2.265625 C9.10813952 4.97407184 9.18627487 7.58206171 9.17749023 10.29199219 C9.18271698 11.12145355 9.18794373 11.95091492 9.19332886 12.80551147 C9.20358603 14.61050265 9.20935224 16.41552355 9.21121025 18.22054291 C9.21486473 21.0789121 9.23156742 23.93693144 9.25196838 26.79522705 C9.30745947 34.92331429 9.33803219 43.05145418 9.36254883 51.1796875 C9.378442 56.14877817 9.4086846 61.11762287 9.44731331 66.086586 C9.45895319 67.97953933 9.46489357 69.87253671 9.46499443 71.76552582 C9.46518692 74.4178373 9.48348664 77.06947332 9.50561523 79.72167969 C9.49874947 80.89085434 9.49874947 80.89085434 9.491745 82.08364868 C9.56694446 87.76560418 10.76543107 91.8869373 14.59375 96.140625 C18.03489332 97.81469472 21.15121166 97.56695524 24.90625 97.265625 C25.69 97.20375 26.47375 97.141875 27.28125 97.078125 C29.1114763 96.35634097 29.1114763 96.35634097 30.03125 94.203125 C32.01067072 87.55792687 33.20486095 81.74367402 33.22509766 74.83007812 C33.24016609 73.62863663 33.24016609 73.62863663 33.25553894 72.40292358 C33.28616022 69.7842473 33.30334687 67.16567224 33.3203125 64.546875 C33.33904113 62.7198399 33.35861579 60.8928133 33.3789978 59.0657959 C33.43014596 54.27865628 33.46986397 49.49148868 33.50714111 44.70422363 C33.54728978 39.81055882 33.59833238 34.9170087 33.6484375 30.0234375 C33.74499155 20.43758077 33.82946151 10.85165902 33.90625 1.265625 C36.15137262 0.14306369 37.42081649 0.13148738 39.90625 0.140625 C40.958125 0.13675781 40.958125 0.13675781 42.03125 0.1328125 C43.90625 0.265625 43.90625 0.265625 45.90625 1.265625 C45.91211624 2.28546982 45.91798248 3.30531464 45.92402649 4.35606384 C45.98137351 13.99248748 46.05419737 23.62868804 46.14196491 33.264884 C46.18658961 38.21832065 46.22586302 43.17167656 46.25268555 48.12524414 C46.27879749 52.9105392 46.31925533 57.6955222 46.36943626 62.48062325 C46.38605175 64.30130681 46.39759901 66.12204429 46.40386391 67.94279289 C46.4135632 70.50377579 46.44169061 73.06396982 46.47387695 75.62475586 C46.47244186 76.36850967 46.47100677 77.11226349 46.4695282 77.8785553 C46.58451671 84.39688014 47.78392263 90.77947008 52.09375 95.828125 C55.83305675 97.73932623 58.78934955 98.08233804 62.90625 97.265625 C66.18743567 95.41104179 67.54636663 94.11142776 69.02111816 90.64544678 C70.06496604 86.6595775 70.19857242 82.90202423 70.19335938 78.81347656 C70.20019241 77.98675949 70.20702545 77.16004242 70.21406555 76.30827332 C70.2276037 74.52245022 70.2366889 72.73658891 70.24177551 70.95072174 C70.25008685 68.12674024 70.27060901 65.30307864 70.29431152 62.47918701 C70.35062588 55.47152457 70.38600868 48.46378492 70.42193604 41.45599365 C70.45312937 35.52297371 70.49226002 29.59011169 70.54219055 23.65721893 C70.56230501 20.87076239 70.57058524 18.0844267 70.57849121 15.2979126 C70.59145663 13.59866894 70.6049759 11.89942939 70.61914062 10.20019531 C70.61815872 9.42199936 70.61717682 8.64380341 70.61616516 7.84202576 C70.67855323 2.49332177 70.67855323 2.49332177 72.90625 0.265625 C75 0 75 0 77.40625 0.015625 C78.2003125 0.01046875 78.994375 0.0053125 79.8125 0 C81.90625 0.265625 81.90625 0.265625 83.90625 2.265625 C84.11002975 4.91817301 84.18944381 7.46674456 84.1809082 10.12084961 C84.18601913 10.93252594 84.19113007 11.74420227 84.19639587 12.58047485 C84.21034528 15.27638034 84.20932959 17.97203134 84.20703125 20.66796875 C84.21091836 22.54448034 84.21525306 24.42099104 84.22001648 26.29750061 C84.22749242 30.24108725 84.22717976 34.18458443 84.22192383 38.12817383 C84.21616051 43.15823791 84.23297704 48.18793 84.2562685 53.2179327 C84.27108302 57.10010386 84.27186653 60.98218737 84.26875877 64.86438179 C84.26926922 66.71695244 84.27445443 68.56952836 84.28457069 70.42207146 C84.4036215 95.29814942 84.4036215 95.29814942 77.44921875 103.76171875 C71.38134676 109.67597373 65.11231568 110.99567181 56.80517578 110.9387207 C50.61796458 110.61813601 46.25707979 108.62775565 41.90625 104.265625 C41.57625 103.605625 41.24625 102.945625 40.90625 102.265625 C38.08087936 103.46097412 36.23549926 104.82686541 33.84375 106.828125 C28.70747591 111.09013967 23.22171827 110.82884413 16.78515625 110.66796875 C10.19288185 109.98417795 5.5856224 107.35134772 1.2578125 102.3671875 C-3.51352932 95.38944484 -4.39573381 87.73418756 -4.35253906 79.49462891 C-4.3560437 78.65786621 -4.35954834 77.82110352 -4.36315918 76.95898438 C-4.37189348 74.21996534 -4.36616015 71.48120871 -4.359375 68.7421875 C-4.36072327 66.8302709 -4.36266516 64.91835464 -4.36517334 63.00643921 C-4.36811268 59.01386223 -4.36386248 55.02137509 -4.35449219 51.02880859 C-4.34305183 45.90393816 -4.34969349 40.77927616 -4.36163712 35.65441322 C-4.36884834 31.71343399 -4.366572 27.77250459 -4.36138153 23.8315239 C-4.36004539 21.94081981 -4.36169151 20.05011123 -4.36634064 18.15941238 C-4.3713988 15.52623648 -4.3637079 12.8934041 -4.35253906 10.26025391 C-4.35658752 9.4758493 -4.36063599 8.6914447 -4.36480713 7.88327026 C-4.30692092 0.54640042 -4.30692092 0.54640042 0 0 Z " fill="#000000" transform="translate(4.09375,206.734375)"/>
<path d="M0 0 C3.2860172 1.37554208 3.37277212 2.11958944 4.6875 5.3125 C5.17669922 6.53066406 5.17669922 6.53066406 5.67578125 7.7734375 C8.35444964 13.99953159 12.33654806 16.92967329 18.3984375 19.3828125 C21.50241304 20.38922095 24.44684682 20.78743196 27.6875 21.125 C28.6875 22.125 28.6875 22.125 28.75 24.6875 C28.729375 25.491875 28.70875 26.29625 28.6875 27.125 C24.92976682 29.00386659 20.68421898 27.94769042 16.6875 27.125 C11.74722083 25.2072545 7.28712855 23.08343397 3.6875 19.125 C2.61450553 28.45839385 2.61450553 28.45839385 5.33984375 37.171875 C12.82383445 45.8527781 21.13712968 49.34151334 32.31640625 50.765625 C34.6875 51.125 34.6875 51.125 35.6875 52.125 C35.72813832 53.79117115 35.730221 55.45888095 35.6875 57.125 C30.99315612 59.47217194 23.93382944 57.83865988 19.10546875 56.3046875 C13.31479803 53.79901397 8.09670669 50.67602328 3.6875 46.125 C3.38730468 50.67081479 3.18104314 55.18595293 3.26953125 59.7421875 C3.28850464 60.86536377 3.28850464 60.86536377 3.30786133 62.01123047 C3.77262026 64.59893646 4.71382341 65.91452165 6.4375 67.875 C8.41924009 69.08707257 8.41924009 69.08707257 10.6875 70.125 C11.52539062 70.63933594 12.36328125 71.15367188 13.2265625 71.68359375 C20.64648646 75.9454509 27.94947323 77.38340709 36.29296875 78.58203125 C39.6875 79.125 39.6875 79.125 40.6875 80.125 C40.72813832 81.79117115 40.730221 83.45888095 40.6875 85.125 C35.38165138 87.77792431 27.44377699 85.6044915 21.99609375 84.1171875 C15.3169096 81.82594633 9.47178014 79.1739961 3.6875 75.125 C2.68479577 84.11308973 2.68479577 84.11308973 4.9765625 92.62109375 C7.0646993 94.82918735 9.15519246 96.43927035 11.6875 98.125 C12.75226563 98.83398438 13.81703125 99.54296875 14.9140625 100.2734375 C24.64902807 106.39819355 34.36105961 108.84276147 45.6875 110.125 C46.6875 111.125 46.6875 111.125 46.75 113.6875 C46.729375 114.491875 46.70875 115.29625 46.6875 116.125 C40.81759407 119.05995296 31.46698893 116.29492846 25.5 114.4375 C17.15378864 111.3944956 10.39739094 106.83904257 3.6875 101.125 C1.74547933 114.46684235 1.74547933 114.46684235 4.8359375 127.06445312 C8.43697903 130.6797845 12.97664732 132.38830725 17.6875 134.125 C18.80253906 134.62386719 19.91757812 135.12273437 21.06640625 135.63671875 C29.42779785 139.08196747 38.01402781 140.34077303 46.92578125 141.546875 C50.6875 142.125 50.6875 142.125 51.6875 143.125 C51.72813832 144.79117115 51.730221 146.45888095 51.6875 148.125 C44.67735715 151.63007143 31.7948656 147.58976208 24.6640625 145.578125 C17.23959009 143.06939916 10.48627717 138.94580039 3.6875 135.125 C3.3575 147.335 3.0275 159.545 2.6875 172.125 C1.0375 172.455 -0.6125 172.785 -2.3125 173.125 C-5.25442784 170.18307216 -4.66787397 167.00309027 -4.7265625 163.0546875 C-4.74592865 162.25845978 -4.7652948 161.46223206 -4.7852478 160.64187622 C-4.84510474 158.09469366 -4.89145279 155.54746605 -4.9375 153 C-4.97567421 151.2747197 -5.01472561 149.54945857 -5.0546875 147.82421875 C-5.15081109 143.59130124 -5.23481908 139.35829451 -5.3125 135.125 C-6.09173828 135.59768311 -6.87097656 136.07036621 -7.67382812 136.55737305 C-20.6286068 144.28893342 -35.87844441 150.46709179 -51.3125 149.125 C-51.9725 148.465 -52.6325 147.805 -53.3125 147.125 C-52.77678571 143.58928571 -52.77678571 143.58928571 -51.3125 142.125 C-49.38894939 141.81112405 -47.46427522 141.50294775 -45.53515625 141.2253418 C-32.28624465 139.29947185 -20.49342244 135.78832887 -9.3125 128.125 C-8.61753418 127.71483643 -7.92256836 127.30467285 -7.20654297 126.88208008 C-5.07245423 125.2560018 -5.07245423 125.2560018 -4.85839844 122.58129883 C-4.8793457 121.59154053 -4.90029297 120.60178223 -4.921875 119.58203125 C-4.93476563 118.50888672 -4.94765625 117.43574219 -4.9609375 116.33007812 C-4.99445313 115.21052734 -5.02796875 114.09097656 -5.0625 112.9375 C-5.08054687 111.80634766 -5.09859375 110.67519531 -5.1171875 109.50976562 C-5.16437348 106.71399624 -5.23019405 103.91992028 -5.3125 101.125 C-5.81894043 101.59260742 -6.32538086 102.06021484 -6.84716797 102.54199219 C-17.18073339 111.87006414 -29.67732517 116.49270661 -43.59765625 117.3203125 C-46.3125 117.125 -46.3125 117.125 -48.3125 115.125 C-47.77678571 111.58928571 -47.77678571 111.58928571 -46.3125 110.125 C-44.658956 109.8674983 -43.00475986 109.61364463 -41.34790039 109.37841797 C-28.7034473 107.47431902 -15.63047353 102.41090411 -6.75390625 92.84375 C-3.83458071 87.33737988 -4.66984636 81.14690265 -5.3125 75.125 C-6.06273437 75.59550781 -6.81296875 76.06601563 -7.5859375 76.55078125 C-18.08781519 82.93920307 -27.82414369 86.50618529 -40.3125 86.125 C-40.9725 85.465 -41.6325 84.805 -42.3125 84.125 C-41.77678571 80.58928571 -41.77678571 80.58928571 -40.3125 79.125 C-38.62493921 78.84904666 -36.93661486 78.57710961 -35.24511719 78.32641602 C-24.27533203 76.63749354 -14.23512672 73.24390801 -6.3125 65.125 C-5.6525 65.125 -4.9925 65.125 -4.3125 65.125 C-4.8075 56.215 -4.8075 56.215 -5.3125 47.125 C-6.7975 48.218125 -8.2825 49.31125 -9.8125 50.4375 C-17.87265545 56.0254229 -25.3501976 58.446859 -35.3125 58.125 C-35.9725 57.465 -36.6325 56.805 -37.3125 56.125 C-36.77678571 52.58928571 -36.77678571 52.58928571 -35.3125 51.125 C-33.18995145 50.73636435 -31.06433172 50.36446791 -28.9375 50 C-20.37429962 48.20181521 -13.07196501 44.62409547 -7.125 38.0625 C-3.80493038 32.87936973 -4.9458201 26.00002685 -5.3125 20.125 C-6.26125 20.888125 -7.21 21.65125 -8.1875 22.4375 C-13.91482671 26.52678804 -21.23500239 29.0096872 -28.3125 28.125 C-28.9725 27.465 -29.6325 26.805 -30.3125 26.125 C-29.9375 24 -29.9375 24 -29.3125 22.125 C-28.343125 21.8775 -27.37375 21.63 -26.375 21.375 C-17.19060906 18.67917675 -10.86269366 15.51990011 -6.09375 6.9296875 C-5.13149082 5.01204242 -4.21797776 3.07010036 -3.3125 1.125 C-2.3125 0.125 -2.3125 0.125 0 0 Z " fill="#000000" transform="translate(324.3125,-0.125)"/>
<path d="M0 0 C3.2860172 1.37554208 3.37277212 2.11958944 4.6875 5.3125 C5.17669922 6.53066406 5.17669922 6.53066406 5.67578125 7.7734375 C8.35444964 13.99953159 12.33654806 16.92967329 18.3984375 19.3828125 C21.50241304 20.38922095 24.44684682 20.78743196 27.6875 21.125 C28.6875 22.125 28.6875 22.125 28.75 24.6875 C28.729375 25.491875 28.70875 26.29625 28.6875 27.125 C24.92976682 29.00386659 20.68421898 27.94769042 16.6875 27.125 C11.74722083 25.2072545 7.28712855 23.08343397 3.6875 19.125 C2.98975834 25.10318165 2.34394117 30.70151208 5.33984375 36.10546875 C12.85111002 44.83121042 21.077182 48.33387669 32.31640625 49.765625 C34.6875 50.125 34.6875 50.125 35.6875 51.125 C35.72813832 52.79117115 35.730221 54.45888095 35.6875 56.125 C30.99315612 58.47217194 23.93382944 56.83865988 19.10546875 55.3046875 C13.31479803 52.79901397 8.09670669 49.67602328 3.6875 45.125 C2.36612967 55.79999741 2.36612967 55.79999741 5.3046875 65.703125 C7.67096658 67.57256968 9.95681635 68.84961481 12.6875 70.125 C13.49574219 70.58777344 14.30398438 71.05054687 15.13671875 71.52734375 C22.16838143 75.24238758 29.48792293 76.38280684 37.2578125 77.546875 C40.6875 78.125 40.6875 78.125 41.6875 79.125 C41.72813832 80.79117115 41.730221 82.45888095 41.6875 84.125 C35.86495383 87.03627309 26.56162821 84.32725809 20.625 82.5 C14.18919842 80.18001812 8.45559581 76.7658548 2.6875 73.125 C2.16159016 84.28780766 2.16159016 84.28780766 6.0625 94.25 C7.70933206 95.77565384 7.70933206 95.77565384 9.6875 97.125 C10.47511719 97.7128125 11.26273437 98.300625 12.07421875 98.90625 C22.24775501 105.9163363 32.76033765 109.41936538 44.984375 110.765625 C47.6875 111.125 47.6875 111.125 48.6875 112.125 C48.72813832 113.79117115 48.730221 115.45888095 48.6875 117.125 C42.71400514 120.11174743 33.16142377 117.19048408 27.0625 115.4375 C18.01508539 112.41804845 11.01015998 108.22721665 3.6875 102.125 C3.3575 119.285 3.0275 136.445 2.6875 154.125 C1.0375 154.455 -0.6125 154.785 -2.3125 155.125 C-4.83554913 152.60195087 -4.57969182 151.71168674 -4.63134766 148.21630859 C-4.65121735 147.19540131 -4.67108704 146.17449402 -4.69155884 145.12265015 C-4.70311005 144.01740997 -4.71466125 142.9121698 -4.7265625 141.7734375 C-4.74592865 140.6442691 -4.7652948 139.51510071 -4.7852478 138.35171509 C-4.84517069 134.73455428 -4.89148002 131.11736187 -4.9375 127.5 C-4.97566805 125.05206922 -5.01471908 122.60415204 -5.0546875 120.15625 C-5.15088259 114.14595376 -5.23589265 108.13557607 -5.3125 102.125 C-5.92470901 102.6083783 -6.53691803 103.09175659 -7.16767883 103.58978271 C-8.37692268 104.53872406 -8.37692268 104.53872406 -9.6105957 105.50683594 C-10.40842972 106.13458923 -11.20626373 106.76234253 -12.02827454 107.40911865 C-22.02278252 114.91686695 -35.86693481 118.88202951 -48.3125 118.125 C-48.9725 117.465 -49.6325 116.805 -50.3125 116.125 C-49.77678571 112.58928571 -49.77678571 112.58928571 -48.3125 111.125 C-46.54036566 110.86758313 -44.76763122 110.61376878 -42.99243164 110.37841797 C-32.6246141 108.91778042 -24.20553334 105.59329554 -15.3125 100.125 C-14.24902344 99.48949219 -13.18554688 98.85398437 -12.08984375 98.19921875 C-8.55945058 95.64204226 -5.7829385 93.52731185 -4.90917969 89.06542969 C-4.47457819 84.04075134 -4.79516777 79.13162632 -5.3125 74.125 C-5.96734375 74.51171875 -6.6221875 74.8984375 -7.296875 75.296875 C-17.95391527 81.37801097 -28.81569575 85.6845584 -41.3125 85.125 C-41.9725 84.465 -42.6325 83.805 -43.3125 83.125 C-42.77678571 79.58928571 -42.77678571 79.58928571 -41.3125 78.125 C-39.55876637 77.79366886 -37.80372775 77.46797598 -36.04321289 77.17480469 C-24.00105841 75.16258115 -14.18953452 72.00203452 -5.3125 63.125 C-5.23924832 60.26232433 -5.22011795 57.424281 -5.25 54.5625 C-5.25451172 53.75619141 -5.25902344 52.94988281 -5.26367188 52.11914062 C-5.27549482 50.12106244 -5.29343086 48.12302217 -5.3125 46.125 C-5.9415625 46.59550781 -6.570625 47.06601563 -7.21875 47.55078125 C-16.22507443 54.10206845 -23.92409042 57.49293323 -35.3125 57.125 C-35.9725 56.465 -36.6325 55.805 -37.3125 55.125 C-36.77678571 51.58928571 -36.77678571 51.58928571 -35.3125 50.125 C-33.18995145 49.73636435 -31.06433172 49.36446791 -28.9375 49 C-20.3614095 47.19910842 -13.02871724 43.62931377 -7.125 37 C-3.95840003 32.0450684 -4.93204168 25.74732851 -5.3125 20.125 C-6.26125 20.888125 -7.21 21.65125 -8.1875 22.4375 C-13.91482671 26.52678804 -21.23500239 29.0096872 -28.3125 28.125 C-28.9725 27.465 -29.6325 26.805 -30.3125 26.125 C-29.9375 24 -29.9375 24 -29.3125 22.125 C-28.343125 21.8775 -27.37375 21.63 -26.375 21.375 C-17.19060906 18.67917675 -10.86269366 15.51990011 -6.09375 6.9296875 C-5.13149082 5.01204242 -4.21797776 3.07010036 -3.3125 1.125 C-2.3125 0.125 -2.3125 0.125 0 0 Z " fill="#000000" transform="translate(432.3125,17.875)"/>
<path d="M0 0 C3.2860172 1.37554208 3.37277212 2.11958944 4.6875 5.3125 C5.17669922 6.53066406 5.17669922 6.53066406 5.67578125 7.7734375 C8.35444964 13.99953159 12.33654806 16.92967329 18.3984375 19.3828125 C21.50241304 20.38922095 24.44684682 20.78743196 27.6875 21.125 C28.6875 22.125 28.6875 22.125 28.75 24.6875 C28.729375 25.491875 28.70875 26.29625 28.6875 27.125 C24.92976682 29.00386659 20.68421898 27.94769042 16.6875 27.125 C11.74722083 25.2072545 7.28712855 23.08343397 3.6875 19.125 C2.98975834 25.10318165 2.34394117 30.70151208 5.33984375 36.10546875 C12.85111002 44.83121042 21.077182 48.33387669 32.31640625 49.765625 C34.6875 50.125 34.6875 50.125 35.6875 51.125 C35.72813832 52.79117115 35.730221 54.45888095 35.6875 56.125 C30.99315612 58.47217194 23.93382944 56.83865988 19.10546875 55.3046875 C13.31479803 52.79901397 8.09670669 49.67602328 3.6875 45.125 C2.36612967 55.79999741 2.36612967 55.79999741 5.3046875 65.703125 C7.67096658 67.57256968 9.95681635 68.84961481 12.6875 70.125 C13.49574219 70.58777344 14.30398437 71.05054687 15.13671875 71.52734375 C22.16838143 75.24238758 29.48792293 76.38280684 37.2578125 77.546875 C40.6875 78.125 40.6875 78.125 41.6875 79.125 C41.72813832 80.79117115 41.730221 82.45888095 41.6875 84.125 C35.86495383 87.03627309 26.56162821 84.32725809 20.625 82.5 C14.18919842 80.18001812 8.45559581 76.7658548 2.6875 73.125 C2.16159016 84.28780766 2.16159016 84.28780766 6.0625 94.25 C7.70933206 95.77565384 7.70933206 95.77565384 9.6875 97.125 C10.47511719 97.7128125 11.26273438 98.300625 12.07421875 98.90625 C22.24775501 105.9163363 32.76033765 109.41936538 44.984375 110.765625 C47.6875 111.125 47.6875 111.125 48.6875 112.125 C48.72813832 113.79117115 48.730221 115.45888095 48.6875 117.125 C42.71400514 120.11174743 33.16142377 117.19048408 27.0625 115.4375 C18.01508539 112.41804845 11.01015998 108.22721665 3.6875 102.125 C3.3575 119.285 3.0275 136.445 2.6875 154.125 C1.0375 154.455 -0.6125 154.785 -2.3125 155.125 C-4.83554913 152.60195087 -4.57969182 151.71168674 -4.63134766 148.21630859 C-4.65121735 147.19540131 -4.67108704 146.17449402 -4.69155884 145.12265015 C-4.70311005 144.01740997 -4.71466125 142.9121698 -4.7265625 141.7734375 C-4.74592865 140.6442691 -4.7652948 139.51510071 -4.7852478 138.35171509 C-4.84517069 134.73455428 -4.89148002 131.11736187 -4.9375 127.5 C-4.97566805 125.05206922 -5.01471908 122.60415204 -5.0546875 120.15625 C-5.15088259 114.14595376 -5.23589265 108.13557607 -5.3125 102.125 C-5.92470901 102.6083783 -6.53691803 103.09175659 -7.16767883 103.58978271 C-8.37692268 104.53872406 -8.37692268 104.53872406 -9.6105957 105.50683594 C-10.40842972 106.13458923 -11.20626373 106.76234253 -12.02827454 107.40911865 C-22.02278252 114.91686695 -35.86693481 118.88202951 -48.3125 118.125 C-48.9725 117.465 -49.6325 116.805 -50.3125 116.125 C-49.77678571 112.58928571 -49.77678571 112.58928571 -48.3125 111.125 C-46.54036566 110.86758313 -44.76763122 110.61376878 -42.99243164 110.37841797 C-32.6246141 108.91778042 -24.20553334 105.59329554 -15.3125 100.125 C-14.24902344 99.48949219 -13.18554688 98.85398437 -12.08984375 98.19921875 C-8.55945058 95.64204226 -5.7829385 93.52731185 -4.90917969 89.06542969 C-4.47457819 84.04075134 -4.79516777 79.13162632 -5.3125 74.125 C-5.96734375 74.51171875 -6.6221875 74.8984375 -7.296875 75.296875 C-17.95391527 81.37801097 -28.81569575 85.6845584 -41.3125 85.125 C-41.9725 84.465 -42.6325 83.805 -43.3125 83.125 C-42.77678571 79.58928571 -42.77678571 79.58928571 -41.3125 78.125 C-39.55876637 77.79366886 -37.80372775 77.46797598 -36.04321289 77.17480469 C-24.00105841 75.16258115 -14.18953452 72.00203452 -5.3125 63.125 C-5.23924832 60.26232433 -5.22011795 57.424281 -5.25 54.5625 C-5.25451172 53.75619141 -5.25902344 52.94988281 -5.26367188 52.11914062 C-5.27549482 50.12106244 -5.29343086 48.12302217 -5.3125 46.125 C-5.9415625 46.59550781 -6.570625 47.06601563 -7.21875 47.55078125 C-16.22507443 54.10206845 -23.92409042 57.49293323 -35.3125 57.125 C-35.9725 56.465 -36.6325 55.805 -37.3125 55.125 C-36.77678571 51.58928571 -36.77678571 51.58928571 -35.3125 50.125 C-33.18995145 49.73636435 -31.06433172 49.36446791 -28.9375 49 C-20.3614095 47.19910842 -13.02871724 43.62931377 -7.125 37 C-3.95840003 32.0450684 -4.93204168 25.74732851 -5.3125 20.125 C-6.26125 20.888125 -7.21 21.65125 -8.1875 22.4375 C-13.91482671 26.52678804 -21.23500239 29.0096872 -28.3125 28.125 C-28.9725 27.465 -29.6325 26.805 -30.3125 26.125 C-29.9375 24 -29.9375 24 -29.3125 22.125 C-28.343125 21.8775 -27.37375 21.63 -26.375 21.375 C-17.19060906 18.67917675 -10.86269366 15.51990011 -6.09375 6.9296875 C-5.13149082 5.01204242 -4.21797776 3.07010036 -3.3125 1.125 C-2.3125 0.125 -2.3125 0.125 0 0 Z " fill="#000000" transform="translate(214.3125,17.875)"/>
<path d="M0 0 C4.55327694 4.09297299 7.55056466 9.92954296 8.8125 15.875 C8.90225724 18.72759704 8.93870904 21.55500484 8.92602539 24.40722656 C8.92617142 25.26612488 8.92631744 26.12502319 8.9264679 27.00994873 C8.92577196 29.84519996 8.91799445 32.68038526 8.91015625 35.515625 C8.90829094 37.48288945 8.90686757 39.45015436 8.90586853 41.41741943 C8.90205227 46.59266444 8.89222956 51.76788133 8.88116455 56.94311523 C8.8709313 62.22509379 8.8663668 67.50707689 8.86132812 72.7890625 C8.85060651 83.15105401 8.83354075 93.51302467 8.8125 103.875 C6.47147141 105.04551429 4.91897047 105.0742246 2.3125 105.125 C1.5184375 105.15078125 0.724375 105.1765625 -0.09375 105.203125 C-0.7846875 105.09484375 -1.475625 104.9865625 -2.1875 104.875 C-4.68086211 101.13495683 -4.44231228 98.24938391 -4.3828125 93.92578125 C-4.3799826 93.15316452 -4.37715271 92.38054779 -4.37423706 91.58451843 C-4.36304878 89.11868757 -4.33794703 86.65322094 -4.3125 84.1875 C-4.30246843 82.51497921 -4.29334289 80.84245272 -4.28515625 79.16992188 C-4.264816 75.07136162 -4.22566585 70.97358815 -4.1875 66.875 C-13.0975 66.875 -22.0075 66.875 -31.1875 66.875 C-31.16429687 69.36675781 -31.14109375 71.85851562 -31.1171875 74.42578125 C-31.10159107 76.83845511 -31.08944629 79.25112335 -31.07763672 81.66381836 C-31.06757763 83.34092725 -31.05392878 85.01801861 -31.03662109 86.69506836 C-31.01236848 89.10535002 -31.0010161 91.51539986 -30.9921875 93.92578125 C-30.98186493 94.67587967 -30.97154236 95.42597809 -30.96090698 96.19880676 C-30.960092 99.97800779 -31.03692933 101.64914399 -33.1875 104.875 C-35.28125 105.203125 -35.28125 105.203125 -37.6875 105.125 C-38.4815625 105.10953125 -39.275625 105.0940625 -40.09375 105.078125 C-42.1875 104.875 -42.1875 104.875 -44.1875 103.875 C-44.28042214 92.57400311 -44.35137754 81.27309801 -44.39474869 69.97179604 C-44.41557091 64.72340976 -44.44379017 59.47528601 -44.48925781 54.22705078 C-44.53290735 49.15660416 -44.55667741 44.08640913 -44.56700897 39.01578903 C-44.57436615 37.0869997 -44.58873264 35.15822321 -44.61042023 33.22954178 C-44.84080496 11.88091465 -44.84080496 11.88091465 -37.875 2.5 C-27.4339853 -7.6982004 -11.88492442 -7.92328295 0 0 Z M-27.1875 9.875 C-31.0364263 15.3474464 -31.74941448 19.27448507 -31.578125 25.87109375 C-31.57246521 26.70463882 -31.56680542 27.5381839 -31.56097412 28.39698792 C-31.53874195 31.03609832 -31.48857305 33.6738062 -31.4375 36.3125 C-31.41741787 38.11130839 -31.39917011 39.91013826 -31.3828125 41.70898438 C-31.34233638 46.09861955 -31.26402821 50.48525668 -31.1875 54.875 C-22.2775 54.875 -13.3675 54.875 -4.1875 54.875 C-4.09537324 49.5905064 -4.01582889 44.3088285 -3.96777344 39.02416992 C-3.94772999 37.22882618 -3.92048749 35.43354713 -3.88574219 33.63842773 C-3.83690151 31.0491535 -3.8144588 28.4607466 -3.796875 25.87109375 C-3.77622986 25.07601913 -3.75558472 24.28094452 -3.73431396 23.46177673 C-3.73206185 17.79460334 -4.91395299 14.52936569 -8.1875 9.875 C-14.45198265 5.55946751 -20.92301735 5.55946751 -27.1875 9.875 Z " fill="#000000" transform="translate(469.1875,211.125)"/>
<path d="M0 0 C1.29873047 -0.00515625 2.59746094 -0.0103125 3.93554688 -0.015625 C4.95273804 -0.00305664 4.95273804 -0.00305664 5.99047852 0.00976562 C8.02810357 0.03093326 10.06210301 0.01010671 12.09960938 -0.015625 C21.04999118 0.01966482 28.65950376 0.78780799 35.8984375 6.390625 C36.40503906 7.01453125 36.91164063 7.6384375 37.43359375 8.28125 C37.95824219 8.89484375 38.48289062 9.5084375 39.0234375 10.140625 C44.14187116 18.44959423 43.95474053 26.64033205 43.9296875 36.08984375 C43.93425673 37.6038486 43.9395645 39.11785137 43.9455719 40.6318512 C43.95447268 43.79477398 43.95211476 46.95744386 43.94213867 50.12036133 C43.93065244 54.15294339 43.9508698 58.18464929 43.98005581 62.21711636 C43.99849276 65.34090117 43.99811056 68.46447889 43.99241829 71.58830452 C43.99226599 73.07410982 43.99823401 74.55992998 44.01070976 76.04568291 C44.08957036 86.97511031 42.94719411 95.8022481 35.21655273 104.0402832 C28.13511476 110.1771275 19.67806394 110.16110721 10.73730469 110.05273438 C8.60369002 110.03107331 6.47336313 110.05272596 4.33984375 110.078125 C2.97785718 110.07548522 1.61587265 110.07036749 0.25390625 110.0625 C-1.58469971 110.05573242 -1.58469971 110.05573242 -3.46044922 110.04882812 C-6.50390625 109.53125 -6.50390625 109.53125 -8.16986084 108.1027832 C-10.23478673 104.12238984 -9.92115078 100.28980091 -9.89208984 95.86914062 C-9.8973468 94.88987106 -9.90260376 93.9106015 -9.90802002 92.9016571 C-9.92122785 89.66344267 -9.91247896 86.42571947 -9.90234375 83.1875 C-9.90436425 80.93835353 -9.90727549 78.6892077 -9.91104126 76.44006348 C-9.91546568 71.72576664 -9.90902961 67.0116403 -9.89501953 62.29736328 C-9.87792775 56.25104451 -9.88776828 50.20512522 -9.90573692 44.15882111 C-9.91657146 39.51431258 -9.9131299 34.86989894 -9.90535355 30.22538757 C-9.90335063 27.9958237 -9.90581399 25.76625124 -9.91279221 23.53669739 C-9.92040107 20.42201884 -9.90880994 17.30798951 -9.89208984 14.19335938 C-9.89816254 13.26960007 -9.90423523 12.34584076 -9.91049194 11.39408875 C-9.8487401 5.19262271 -9.8487401 5.19262271 -8.16313171 1.9597168 C-5.57526426 -0.26824005 -3.35996711 0.01287432 0 0 Z M3.49609375 12.53125 C3.49609375 40.58125 3.49609375 68.63125 3.49609375 97.53125 C20.20179329 99.19535059 20.20179329 99.19535059 27.49609375 93.53125 C30.25113975 89.29914936 30.87602629 85.99558143 30.90014648 80.99438477 C30.91283066 79.71608292 30.92551483 78.43778107 30.93858337 77.1207428 C30.93653166 75.73804562 30.93354341 74.35534957 30.9296875 72.97265625 C30.93425388 71.54068251 30.9395608 70.10871096 30.9455719 68.67674255 C30.95448488 65.68178379 30.95210092 62.68709193 30.94213867 59.69213867 C30.93065262 55.86779055 30.95086287 52.04436632 30.98005581 48.2201395 C30.99846619 45.26456419 30.99811581 42.30920831 30.99241829 39.35359001 C30.99226566 37.94428143 30.9982619 36.53495743 31.01070976 35.12570381 C31.27507258 24.53742138 31.27507258 24.53742138 26.49609375 15.53125 C19.07991736 11.26414481 19.07991736 11.26414481 3.49609375 12.53125 Z " fill="#000000" transform="translate(601.50390625,206.46875)"/>
<path d="M0 0 C1.29873047 -0.00515625 2.59746094 -0.0103125 3.93554688 -0.015625 C4.95273804 -0.00305664 4.95273804 -0.00305664 5.99047852 0.00976562 C8.02810357 0.03093326 10.06210301 0.01010671 12.09960938 -0.015625 C21.04999118 0.01966482 28.65950376 0.78780799 35.8984375 6.390625 C36.40503906 7.01453125 36.91164063 7.6384375 37.43359375 8.28125 C37.95824219 8.89484375 38.48289062 9.5084375 39.0234375 10.140625 C44.14187116 18.44959423 43.95474053 26.64033205 43.9296875 36.08984375 C43.93425673 37.6038486 43.9395645 39.11785137 43.9455719 40.6318512 C43.95447268 43.79477398 43.95211476 46.95744386 43.94213867 50.12036133 C43.93065244 54.15294339 43.9508698 58.18464929 43.98005581 62.21711636 C43.99849276 65.34090117 43.99811056 68.46447889 43.99241829 71.58830452 C43.99226599 73.07410982 43.99823401 74.55992998 44.01070976 76.04568291 C44.08957036 86.97511031 42.94719411 95.8022481 35.21655273 104.0402832 C28.13511476 110.1771275 19.67806394 110.16110721 10.73730469 110.05273438 C8.60369002 110.03107331 6.47336313 110.05272596 4.33984375 110.078125 C2.97785718 110.07548522 1.61587265 110.07036749 0.25390625 110.0625 C-1.58469971 110.05573242 -1.58469971 110.05573242 -3.46044922 110.04882812 C-6.50390625 109.53125 -6.50390625 109.53125 -8.16986084 108.1027832 C-10.23478673 104.12238984 -9.92115078 100.28980091 -9.89208984 95.86914062 C-9.8973468 94.88987106 -9.90260376 93.9106015 -9.90802002 92.9016571 C-9.92122785 89.66344267 -9.91247896 86.42571947 -9.90234375 83.1875 C-9.90436425 80.93835353 -9.90727549 78.6892077 -9.91104126 76.44006348 C-9.91546568 71.72576664 -9.90902961 67.0116403 -9.89501953 62.29736328 C-9.87792775 56.25104451 -9.88776828 50.20512522 -9.90573692 44.15882111 C-9.91657146 39.51431258 -9.9131299 34.86989894 -9.90535355 30.22538757 C-9.90335063 27.9958237 -9.90581399 25.76625124 -9.91279221 23.53669739 C-9.92040107 20.42201884 -9.90880994 17.30798951 -9.89208984 14.19335938 C-9.89816254 13.26960007 -9.90423523 12.34584076 -9.91049194 11.39408875 C-9.8487401 5.19262271 -9.8487401 5.19262271 -8.16313171 1.9597168 C-5.57526426 -0.26824005 -3.35996711 0.01287432 0 0 Z M3.49609375 12.53125 C3.49609375 40.58125 3.49609375 68.63125 3.49609375 97.53125 C20.20179329 99.19535059 20.20179329 99.19535059 27.49609375 93.53125 C30.25113975 89.29914936 30.87602629 85.99558143 30.90014648 80.99438477 C30.91283066 79.71608292 30.92551483 78.43778107 30.93858337 77.1207428 C30.93653166 75.73804562 30.93354341 74.35534957 30.9296875 72.97265625 C30.93425388 71.54068251 30.9395608 70.10871096 30.9455719 68.67674255 C30.95448488 65.68178379 30.95210092 62.68709193 30.94213867 59.69213867 C30.93065262 55.86779055 30.95086287 52.04436632 30.98005581 48.2201395 C30.99846619 45.26456419 30.99811581 42.30920831 30.99241829 39.35359001 C30.99226566 37.94428143 30.9982619 36.53495743 31.01070976 35.12570381 C31.27507258 24.53742138 31.27507258 24.53742138 26.49609375 15.53125 C19.07991736 11.26414481 19.07991736 11.26414481 3.49609375 12.53125 Z " fill="#000000" transform="translate(289.50390625,206.46875)"/>
<path d="M0 0 C6.64883203 3.88213054 11.2679819 9.07617403 13.91752625 16.34434509 C15.35469052 22.26181435 15.01219051 28.4646708 14.99609375 34.5234375 C15.00066343 36.03504672 15.00597133 37.54665387 15.01197815 39.05825806 C15.02087977 42.21698478 15.01852069 45.37545828 15.00854492 48.53417969 C14.9970686 52.55769641 15.01726042 56.58033367 15.04646206 60.60373497 C15.06491848 63.72327109 15.06451281 66.84260019 15.05882454 69.96217728 C15.05867242 71.444365 15.06462492 72.92656775 15.07711601 74.40870285 C15.14924277 84.36971268 14.05645419 92.17674301 8.875 100.8125 C1.49307595 107.79540113 -6.66310918 109.56844633 -16.56640625 109.33203125 C-24.21175444 108.67627485 -29.3596292 105.67233147 -34.375 99.9375 C-40.65594756 90.73603873 -40.88364649 80.0388065 -40.80078125 69.23828125 C-40.80127975 67.96703903 -40.80177826 66.69579681 -40.80229187 65.3860321 C-40.79996598 62.7175652 -40.79194856 60.0499155 -40.77368164 57.3815918 C-40.75092773 53.986055 -40.75047226 50.5909629 -40.75719929 47.19537067 C-40.76136798 43.91797475 -40.74935368 40.64065581 -40.73828125 37.36328125 C-40.73964836 35.55359612 -40.73964836 35.55359612 -40.74104309 33.70735168 C-40.64980397 22.77808068 -39.22174011 13.880058 -32.4375 5 C-24.00143619 -3.11378722 -10.58000053 -4.812037 0 0 Z M-22.4375 14 C-26.56890617 19.35966205 -27.55395589 23.1010631 -27.59863281 29.74316406 C-27.60824036 30.89826477 -27.6178479 32.05336548 -27.62774658 33.24346924 C-27.63199646 34.48828064 -27.63624634 35.73309204 -27.640625 37.015625 C-27.64632507 38.30055847 -27.65202515 39.58549194 -27.65789795 40.90936279 C-27.66838905 43.6295206 -27.67424364 46.34964904 -27.67773438 49.06982422 C-27.68320626 52.53747683 -27.70721371 56.00473426 -27.73570633 59.47226334 C-27.75893449 62.79920887 -27.76078929 66.12610266 -27.765625 69.453125 C-27.7779718 70.68983948 -27.7903186 71.92655396 -27.80303955 73.20074463 C-27.78221213 81.30456934 -27.37637585 87.54682088 -21.9375 93.9375 C-18.28599231 96.94999384 -15.18792403 97.35482352 -10.49609375 97.27734375 C-5.81006095 96.64601865 -3.10331376 93.84876345 -0.29797363 90.27258301 C1.80400522 86.57519103 2.06849342 84.48211763 2.08007812 80.26367188 C2.0870874 79.61894424 2.09409668 78.97421661 2.10131836 78.30995178 C2.11880849 76.19576923 2.10730967 74.08294424 2.09375 71.96875 C2.09644755 70.48954005 2.10033216 69.01033184 2.10534668 67.53112793 C2.11122949 64.43773441 2.10271879 61.3448043 2.08398438 58.25146484 C2.06119474 54.29695495 2.07432448 50.34353108 2.09827423 46.38906097 C2.11276567 43.33656715 2.10811109 40.28432852 2.09776306 37.23182678 C2.09510497 35.77425506 2.09833312 34.31665977 2.10768127 32.8591156 C2.11790321 30.81756702 2.10227181 28.77774864 2.08007812 26.73632812 C2.07689575 25.57750122 2.07371338 24.41867432 2.07043457 23.22473145 C1.32300709 18.47952798 -0.92531219 15.32889232 -4.5 12.1875 C-10.93544844 8.24319289 -16.85644769 9.28711139 -22.4375 14 Z " fill="#000000" transform="translate(236.4375,208)"/>
<path d="M0 0 C6.87549286 4.26045498 10.65270368 9.31889391 12.828125 17.1328125 C13.08882141 20.49594116 13.08882141 20.49594116 13.1027832 24.20458984 C13.10789413 24.88511917 13.11300507 25.5656485 13.11827087 26.26679993 C13.13209129 28.50087451 13.13121572 30.73463793 13.12890625 32.96875 C13.13279764 34.53284823 13.13713322 36.09694542 13.14189148 37.66104126 C13.14933768 40.93421865 13.14907429 44.20728815 13.14379883 47.48046875 C13.13800958 51.65877932 13.15492953 55.83664583 13.1781435 60.01488304 C13.19293254 63.24411568 13.19374549 66.47324269 13.19063377 69.7025032 C13.1911445 71.2421621 13.19633519 72.78182731 13.20644569 74.32145309 C13.26758037 84.93337081 12.99283874 93.4384229 5.5078125 101.59375 C-1.3956953 107.9192897 -8.61063976 108.49975996 -17.625 108.40625 C-25.01332078 107.8366658 -30.64633882 104.77090145 -35.55847168 99.23327637 C-41.92702747 90.94215588 -41.76670508 81.40240301 -41.703125 71.4140625 C-41.70582655 69.90531159 -41.70971446 68.3965624 -41.71472168 66.88781738 C-41.72058568 63.74095928 -41.71215516 60.59455842 -41.69335938 57.44775391 C-41.670571 53.43994997 -41.68371095 49.43321792 -41.70764923 45.42545319 C-41.72219198 42.31447459 -41.7174628 39.20374479 -41.70713806 36.09275818 C-41.70449409 34.61616383 -41.70765729 33.13954593 -41.71705627 31.66297913 C-41.76854209 21.30470056 -41.11751387 12.29925801 -33.984375 4.2578125 C-24.56096013 -4.15169065 -11.33351326 -6.00256443 0 0 Z M-25.421875 14.2578125 C-29.83424604 21.50670777 -29.46825712 30.04890902 -29.4375 38.2890625 C-29.43941345 39.43137329 -29.4413269 40.57368408 -29.44329834 41.75061035 C-29.44465306 44.15421775 -29.44100669 46.55783264 -29.43261719 48.96142578 C-29.42190784 52.62158789 -29.43253712 56.28125924 -29.4453125 59.94140625 C-29.44399078 62.28645941 -29.44142813 64.63151226 -29.4375 66.9765625 C-29.44154846 68.06118774 -29.44559692 69.14581299 -29.44976807 70.26330566 C-29.4717837 81.58145225 -29.4717837 81.58145225 -24.796875 91.5703125 C-21.06816853 95.21024024 -19.57680639 95.99462253 -14.359375 96.5078125 C-9.65371824 96.37612434 -6.96859125 94.88729292 -3.171875 92.1328125 C0.43177641 87.32794395 0.95109268 83.07963462 0.98925781 77.19018555 C0.99886536 75.99181564 1.0084729 74.79344574 1.01837158 73.5587616 C1.02262146 72.26706558 1.02687134 70.97536957 1.03125 69.64453125 C1.03700742 68.29938253 1.04276507 66.9542338 1.04852295 65.60908508 C1.05901406 62.79057434 1.06486893 59.97209196 1.06835938 57.15356445 C1.0738373 53.55578365 1.09785783 49.95838257 1.12633133 46.36072063 C1.1450282 43.5819034 1.15016705 40.80317633 1.15169525 38.02430153 C1.15616399 36.05739068 1.17477566 34.09052823 1.19366455 32.123703 C1.19749149 21.98873894 1.19749149 21.98873894 -3.70703125 13.390625 C-11.33448396 7.73343501 -18.16353127 7.40271008 -25.421875 14.2578125 Z " fill="#000000" transform="translate(157.171875,208.8671875)"/>
<path d="M0 0 C6.3352135 3.7654663 9.89837404 8.74023677 12.53259277 15.51702881 C14.45503245 23.18018368 13.85388136 31.25290758 13.765625 39.1015625 C13.7581538 41.06024597 13.75246502 43.01893697 13.74847412 44.97763062 C13.73328701 50.10366884 13.69406563 55.22924529 13.6496582 60.35510254 C13.60855532 65.59734859 13.59043117 70.8396701 13.5703125 76.08203125 C13.52756406 86.34655575 13.45939761 96.6107393 13.375 106.875 C11.03397141 108.04551429 9.48147047 108.0742246 6.875 108.125 C6.0809375 108.15078125 5.286875 108.1765625 4.46875 108.203125 C3.7778125 108.09484375 3.086875 107.9865625 2.375 107.875 C-0.12825731 104.12011403 0.08943049 101.1746087 0.10375977 96.8269043 C0.09853302 96.00705048 0.09330627 95.18719666 0.08792114 94.34249878 C0.07767741 92.56153466 0.07190009 90.78054057 0.07003975 88.99954796 C0.06637989 86.17890297 0.04966289 83.35861079 0.02928162 80.53804016 C-0.02616154 72.51834682 -0.05679304 64.49860093 -0.08129883 56.47875977 C-0.09719214 51.57335321 -0.12743258 46.66819582 -0.16606331 41.76291847 C-0.17770063 39.89508527 -0.18364355 38.02720745 -0.18374443 36.159338 C-0.18393693 33.5430547 -0.20223673 30.92745603 -0.22436523 28.3112793 C-0.21978806 27.54275131 -0.21521088 26.77422333 -0.210495 25.98240662 C-0.2745376 21.2088925 -1.10060824 17.93162202 -3.625 13.875 C-7.13295788 10.86817896 -10.22522858 10.40057444 -14.69921875 10.5859375 C-18.56951155 11.16687395 -20.85797926 12.99840487 -23.375 15.875 C-26.00779884 20.08747814 -25.78253973 24.19249358 -25.79858398 28.98657227 C-25.805271 29.81285126 -25.81195801 30.63913025 -25.81884766 31.490448 C-25.83289545 33.28452138 -25.84479038 35.07861261 -25.85479546 36.87271309 C-25.8711954 39.70898586 -25.89443071 42.54512556 -25.91969299 45.3813324 C-25.99051221 53.44515371 -26.05071191 61.50902803 -26.10180664 69.57299805 C-26.13353107 74.50428896 -26.17478436 79.43542477 -26.22200203 84.3665905 C-26.23805543 86.24889282 -26.25036149 88.13123086 -26.25890923 90.01358223 C-26.2710124 92.6401567 -26.29513872 95.2663636 -26.32202148 97.89282227 C-26.32261063 98.67573135 -26.32319977 99.45864044 -26.32380676 100.26527405 C-26.39709862 105.64709862 -26.39709862 105.64709862 -28.625 107.875 C-30.71875 108.140625 -30.71875 108.140625 -33.125 108.125 C-33.9190625 108.13015625 -34.713125 108.1353125 -35.53125 108.140625 C-37.625 107.875 -37.625 107.875 -39.625 105.875 C-39.83405947 103.19252344 -39.91864796 100.61243712 -39.91552734 97.92797852 C-39.92224457 97.10654861 -39.92896179 96.28511871 -39.93588257 95.438797 C-39.95494822 92.71043917 -39.95879238 89.98232666 -39.9609375 87.25390625 C-39.96736426 85.35497435 -39.97409253 83.45604345 -39.98110962 81.55711365 C-39.99310714 77.56645416 -39.99678838 73.57588134 -39.99560547 69.58520508 C-39.99540323 64.49451882 -40.02259537 59.40439682 -40.05714989 54.31384373 C-40.07950609 50.38534548 -40.08344019 46.45698053 -40.08238602 42.52842522 C-40.0847331 40.6535137 -40.09350585 38.77859801 -40.10905075 36.90374947 C-40.19638029 25.27256111 -39.8844235 15.63996674 -33.5 5.5 C-24.19366424 -2.99708917 -11.7122023 -5.38411688 0 0 Z " fill="#000000" transform="translate(547.625,208.125)"/>
<path d="M0 0 C1.19109375 0.00773438 1.19109375 0.00773438 2.40625 0.015625 C3.2003125 0.01046875 3.994375 0.0053125 4.8125 0 C6.90625 0.265625 6.90625 0.265625 8.90625 2.265625 C9.10805691 4.91363874 9.18628787 7.45890575 9.17749023 10.10839844 C9.18271698 10.91835266 9.18794373 11.72830688 9.19332886 12.56280518 C9.20358547 14.32523404 9.20935215 16.08769333 9.21121025 17.85015106 C9.21486511 20.64131373 9.23156886 23.43211823 9.25196838 26.22320557 C9.30745546 34.16012912 9.33802978 42.09710657 9.36254883 50.03417969 C9.37844399 54.88656391 9.40868873 59.73869636 9.44731331 64.59095001 C9.45895155 66.43924532 9.46489356 68.28758572 9.46499443 70.13591766 C9.46518697 72.72596917 9.48349015 75.31532952 9.50561523 77.90527344 C9.50103806 78.66602173 9.49646088 79.42677002 9.491745 80.21057129 C9.55652141 84.99199014 10.56212875 88.12956525 12.90625 92.265625 C12.90625 92.925625 12.90625 93.585625 12.90625 94.265625 C18.39549957 97.07249901 24.20302573 96.67991152 30.22070312 96.83203125 C31.46303711 96.87650391 31.46303711 96.87650391 32.73046875 96.921875 C33.48416748 96.94056641 34.23786621 96.95925781 35.0144043 96.97851562 C36.90625 97.265625 36.90625 97.265625 38.90625 99.265625 C39.13671875 101.140625 39.13671875 101.140625 39.09375 103.265625 C39.08730469 103.966875 39.08085937 104.668125 39.07421875 105.390625 C38.90625 107.265625 38.90625 107.265625 37.90625 109.265625 C34.28168986 109.41290958 30.65791479 109.50034726 27.03125 109.578125 C26.01804687 109.62001953 25.00484375 109.66191406 23.9609375 109.70507812 C16.57859901 109.82338483 11.03596637 108.50125972 4.90625 104.265625 C-1.48478787 97.81838249 -4.40182547 89.80378192 -4.48922729 80.77384949 C-4.48158356 80.01453629 -4.47393982 79.25522308 -4.46606445 78.47290039 C-4.46971512 77.64574524 -4.47336578 76.81859009 -4.47712708 75.96636963 C-4.48515516 73.26512356 -4.47169588 70.56449174 -4.45703125 67.86328125 C-4.45651206 65.97521464 -4.45703204 64.08714749 -4.45854187 62.19908142 C-4.45845252 58.25950968 -4.44809231 54.32014417 -4.42993164 50.38061523 C-4.40713631 45.32413982 -4.40672396 40.26796241 -4.41344929 35.21144962 C-4.41678324 31.32107376 -4.41017186 27.43076628 -4.40032005 23.54040337 C-4.39646602 21.67482294 -4.39532068 19.80923493 -4.3969059 17.9436512 C-4.39727524 15.34648101 -4.38469712 12.74969982 -4.3684082 10.15258789 C-4.37088562 9.37910507 -4.37336304 8.60562225 -4.37591553 7.80870056 C-4.30292327 0.54589325 -4.30292327 0.54589325 0 0 Z " fill="#000000" transform="translate(365.09375,206.734375)"/>
<path d="M0 0 C60.06 0 120.12 0 182 0 C182.33 1.32 182.66 2.64 183 4 C122.61 4 62.22 4 0 4 C0 2.68 0 1.36 0 0 Z " fill="#000000" transform="translate(461,378)"/>
<path d="M0 0 C60.06 0 120.12 0 182 0 C182.33 1.32 182.66 2.64 183 4 C122.61 4 62.22 4 0 4 C0 2.68 0 1.36 0 0 Z " fill="#000000" transform="translate(2,378)"/>
<path d="M0 0 C3.79619285 1.37309103 4.70236641 2.4448414 6.6105957 6.00415039 C8.48328337 10.58874673 8.37875694 14.98122269 8.29296875 19.87109375 C8.28872391 20.793423 8.28447906 21.71575226 8.28010559 22.66603088 C8.26341364 25.59016035 8.22577938 28.51358149 8.1875 31.4375 C8.17244089 33.42902645 8.15875464 35.42056379 8.14648438 37.41210938 C8.11354122 42.27500938 8.06182499 47.1373849 8 52 C6.02 52.495 6.02 52.495 4 53 C4 46.4 4 39.8 4 33 C-1.61 33 -7.22 33 -13 33 C-13 39.27 -13 45.54 -13 52 C-14.98 52.495 -14.98 52.495 -17 53 C-17.10164192 46.7013125 -17.17156661 40.40283747 -17.21972656 34.10351562 C-17.23980888 31.96183366 -17.26708037 29.8202063 -17.30175781 27.67871094 C-17.35042398 24.59556585 -17.3730029 21.51314738 -17.390625 18.4296875 C-17.42159271 16.99965897 -17.42159271 16.99965897 -17.45318604 15.54074097 C-17.4550953 9.85016356 -16.90187286 6.46117067 -13 2 C-8.73331037 -0.84445975 -5.00402865 -0.49639964 0 0 Z M-12 8 C-13.17426264 10.34852528 -13.11508173 11.73774065 -13.09765625 14.3515625 C-13.09443359 15.20234375 -13.09121094 16.053125 -13.08789062 16.9296875 C-13.07951172 17.81914062 -13.07113281 18.70859375 -13.0625 19.625 C-13.05798828 20.5221875 -13.05347656 21.419375 -13.04882812 22.34375 C-13.03702611 24.56252831 -13.01909039 26.78127243 -13 29 C-7.39 29 -1.78 29 4 29 C4.08120751 26.10359882 4.14059421 23.20949088 4.1875 20.3125 C4.21263672 19.49587891 4.23777344 18.67925781 4.26367188 17.83789062 C4.32173421 13.0574247 4.16104605 9.85367618 1 6 C-4.28008911 2.47994059 -8.07684792 3.05973442 -12 8 Z " fill="#000000" transform="translate(278,352)"/>
<path d="M0 0 C1.31355469 -0.03738281 2.62710937 -0.07476562 3.98046875 -0.11328125 C8.39505308 0.37722812 10.44419329 1.46316202 13.8125 4.3125 C16.35861367 7.97274181 16.11864759 11.88977789 16.11328125 16.18359375 C16.11756638 16.94293716 16.1218515 17.70228058 16.12626648 18.4846344 C16.13199833 20.08748377 16.13251848 21.69035916 16.12817383 23.29321289 C16.12501518 25.73824692 16.14848106 28.18206869 16.17382812 30.62695312 C16.17610147 32.18749848 16.17680445 33.74804707 16.17578125 35.30859375 C16.184991 36.03582138 16.19420074 36.76304901 16.20368958 37.51231384 C16.15057792 43.37395973 14.60133342 46.4507177 10.609375 50.60546875 C7.05072832 52.77743607 4.09703341 52.79990752 0.0625 52.625 C-0.62199219 52.61533203 -1.30648438 52.60566406 -2.01171875 52.59570312 C-7.01830832 52.48169168 -7.01830832 52.48169168 -8.1875 51.3125 C-8.28596967 49.75250952 -8.31548618 48.18809456 -8.31689453 46.625 C-8.32004669 45.62726563 -8.32319885 44.62953125 -8.32644653 43.6015625 C-8.3244223 42.51617187 -8.32239807 41.43078125 -8.3203125 40.3125 C-8.32126923 39.20648438 -8.32222595 38.10046875 -8.32321167 36.9609375 C-8.32389367 34.61718692 -8.32203804 32.27343447 -8.31787109 29.9296875 C-8.31252314 26.32808212 -8.31781547 22.72660147 -8.32421875 19.125 C-8.32355797 16.85416639 -8.32227682 14.58333286 -8.3203125 12.3125 C-8.32233673 11.22710937 -8.32436096 10.14171875 -8.32644653 9.0234375 C-8.32329437 8.02570313 -8.32014221 7.02796875 -8.31689453 6 C-8.31609894 5.11699219 -8.31530334 4.23398437 -8.31448364 3.32421875 C-8.02629253 -1.24140438 -3.5960779 0.05112907 0 0 Z M-4.1875 4.3125 C-4.1875 18.8325 -4.1875 33.3525 -4.1875 48.3125 C4.97131556 49.16136816 4.97131556 49.16136816 8.875 46.5 C13.32747786 41.47300887 11.99851852 34.40387762 11.99780273 28.0612793 C11.99998859 25.88635676 12.01815497 23.71194217 12.03710938 21.53710938 C12.04004373 20.1510434 12.04202824 18.76497502 12.04296875 17.37890625 C12.04707764 16.12021729 12.05118652 14.86152832 12.05541992 13.56469727 C11.82389306 10.46502965 11.6349958 8.79542996 9.8125 6.3125 C5.06714401 3.56714401 5.06714401 3.56714401 -4.1875 4.3125 Z " fill="#000000" transform="translate(350.1875,352.6875)"/>
<path d="M0 0 C3.79619285 1.37309103 4.70236641 2.4448414 6.6105957 6.00415039 C8.48328337 10.58874673 8.37875694 14.98122269 8.29296875 19.87109375 C8.28872391 20.793423 8.28447906 21.71575226 8.28010559 22.66603088 C8.26341364 25.59016035 8.22577938 28.51358149 8.1875 31.4375 C8.17244089 33.42902645 8.15875464 35.42056379 8.14648438 37.41210938 C8.11354122 42.27500938 8.06182499 47.1373849 8 52 C6.02 52.495 6.02 52.495 4 53 C3.98541748 51.75387939 3.97083496 50.50775879 3.95581055 49.22387695 C3.897757 44.59240288 3.82052424 39.96141138 3.73754883 35.33032227 C3.70433273 33.32747236 3.67629048 31.3245296 3.65356445 29.3215332 C3.61995766 26.43921406 3.56763852 23.55774332 3.51171875 20.67578125 C3.50532883 19.78288895 3.4989389 18.88999664 3.49235535 17.970047 C3.3798794 13.1941255 3.13898988 9.85771032 0 6 C-2.79870027 4.60064987 -4.90498792 4.74734595 -8 5 C-10.03667615 6.54506466 -10.86073078 7.72146156 -12 10 C-12.11704964 11.35752296 -12.17677189 12.72025888 -12.20532227 14.08251953 C-12.22526749 14.92324005 -12.24521271 15.76396057 -12.26576233 16.63015747 C-12.28247482 17.53853363 -12.29918732 18.44690979 -12.31640625 19.3828125 C-12.33718735 20.31221649 -12.35796844 21.24162048 -12.37937927 22.19918823 C-12.44487646 25.1743821 -12.50376052 28.14966577 -12.5625 31.125 C-12.60568506 33.13933228 -12.64929934 35.15365541 -12.69335938 37.16796875 C-12.80055803 42.11188663 -12.90182501 47.05589503 -13 52 C-14.98 52.495 -14.98 52.495 -17 53 C-17.10164192 46.7013125 -17.17156661 40.40283747 -17.21972656 34.10351562 C-17.23980888 31.96183366 -17.26708037 29.8202063 -17.30175781 27.67871094 C-17.35042398 24.59556585 -17.3730029 21.51314738 -17.390625 18.4296875 C-17.42159271 16.99965897 -17.42159271 16.99965897 -17.45318604 15.54074097 C-17.4550953 9.85016356 -16.90187286 6.46117067 -13 2 C-8.73331037 -0.84445975 -5.00402865 -0.49639964 0 0 Z " fill="#000000" transform="translate(318,352)"/>
<path d="M0 0 C3.50745952 2.04601805 5.73959779 4.10421136 7 8 C7.125 11.25 7.125 11.25 7 14 C5.68 14 4.36 14 3 14 C2.80664062 13.43410156 2.61328125 12.86820312 2.4140625 12.28515625 C2.02347656 11.18494141 2.02347656 11.18494141 1.625 10.0625 C1.36976563 9.33160156 1.11453125 8.60070312 0.8515625 7.84765625 C0.14728587 5.81317884 0.14728587 5.81317884 -2 5 C-5.34919863 4.70876534 -7.35756835 4.63537663 -10.3125 6.3125 C-14.78722411 10.78722411 -13.2246368 18.68995884 -13.24023438 24.62353516 C-13.24993528 26.86007953 -13.28096772 29.09570261 -13.3125 31.33203125 C-13.31903116 32.76041123 -13.32428119 34.18879776 -13.328125 35.6171875 C-13.3374707 36.91253418 -13.34681641 38.20788086 -13.35644531 39.54248047 C-12.97778604 43.21547544 -12.22345279 45.08840007 -10 48 C-7.20129973 49.39935013 -5.09501208 49.25265405 -2 49 C1.31097927 46.87151333 1.94490933 43.65223694 3 40 C4.32 40 5.64 40 7 40 C7.50432107 45.2953712 6.28757779 47.86704506 3 52 C-1.24908406 54.83272271 -5.01145405 54.76806539 -10 54 C-13.86849178 52.0224207 -16.49368125 49.06136196 -18 45 C-18.21567213 42.2803563 -18.32784341 39.6655484 -18.3359375 36.9453125 C-18.3425943 36.16614471 -18.3492511 35.38697693 -18.35610962 34.584198 C-18.36621741 32.93848016 -18.37092722 31.2927215 -18.37060547 29.64697266 C-18.37497342 27.14025677 -18.41129517 24.63531022 -18.44921875 22.12890625 C-18.45508856 20.52604765 -18.45905685 18.92318074 -18.4609375 17.3203125 C-18.47530853 16.57637238 -18.48967957 15.83243225 -18.50448608 15.06594849 C-18.45944445 9.88793037 -17.22933895 7.00549556 -14 3 C-9.82345769 -0.97485818 -5.49606414 -0.81060265 0 0 Z " fill="#000000" transform="translate(241,352)"/>
<path d="M0 0 C1.60294922 0.04060547 1.60294922 0.04060547 3.23828125 0.08203125 C4.04652344 0.11683594 4.85476563 0.15164063 5.6875 0.1875 C5.6875 1.5075 5.6875 2.8275 5.6875 4.1875 C4.92824219 4.24808594 4.16898437 4.30867188 3.38671875 4.37109375 C2.39285156 4.45488281 1.39898437 4.53867187 0.375 4.625 C-0.61113281 4.70621094 -1.59726562 4.78742188 -2.61328125 4.87109375 C-5.40625599 5.10562559 -5.40625599 5.10562559 -8.3125 6.1875 C-8.9725 11.7975 -9.6325 17.4075 -10.3125 23.1875 C-5.6925 23.1875 -1.0725 23.1875 3.6875 23.1875 C4.0175 24.5075 4.3475 25.8275 4.6875 27.1875 C-0.2625 27.1875 -5.2125 27.1875 -10.3125 27.1875 C-10.209375 29.394375 -10.10625 31.60125 -10 33.875 C-9.94199219 35.11636719 -9.88398438 36.35773438 -9.82421875 37.63671875 C-9.25792848 41.56616802 -8.14619511 44.35380489 -5.3125 47.1875 C-3.46358054 47.42113881 -1.60761969 47.60053635 0.25 47.75 C1.26191406 47.83378906 2.27382813 47.91757812 3.31640625 48.00390625 C4.49009766 48.09478516 4.49009766 48.09478516 5.6875 48.1875 C5.6875 49.5075 5.6875 50.8275 5.6875 52.1875 C-4.9778883 52.80878476 -4.9778883 52.80878476 -9.9375 50.5 C-13.89651178 46.64517274 -14.53731506 43.05018049 -14.61604309 37.59107971 C-14.61513168 36.89199997 -14.61422028 36.19292023 -14.61328125 35.47265625 C-14.61756638 34.7392955 -14.6218515 34.00593475 -14.62626648 33.25035095 C-14.63198966 31.7047529 -14.63252491 30.15912792 -14.62817383 28.61352539 C-14.62501445 26.26075888 -14.6484942 23.90925189 -14.67382812 21.55664062 C-14.67610155 20.04948074 -14.67680441 18.5423175 -14.67578125 17.03515625 C-14.684991 16.33810074 -14.69420074 15.64104523 -14.70368958 14.92286682 C-14.66017669 10.28352042 -13.74561981 7.13004847 -11.3125 3.1875 C-7.57766384 0.15254796 -4.73487759 -0.15609487 0 0 Z " fill="#000000" transform="translate(422.3125,352.8125)"/>
<path d="M0 0 C1.32 0.33 2.64 0.66 4 1 C4.02505615 2.22106445 4.0501123 3.44212891 4.07592773 4.70019531 C4.17013579 9.23269045 4.27032384 13.76503714 4.37231445 18.29736328 C4.4156126 20.25859096 4.45729131 22.2198551 4.49731445 24.18115234 C4.55514099 27.00108828 4.61879984 29.82084161 4.68359375 32.640625 C4.70030624 33.51680481 4.71701874 34.39298462 4.73423767 35.29571533 C4.75418289 36.11626404 4.77412811 36.93681274 4.79467773 37.78222656 C4.81022202 38.50170471 4.8257663 39.22118286 4.84178162 39.96246338 C4.97059046 42.35467989 4.97059046 42.35467989 6 46 C9.96 46.66 13.92 47.32 18 48 C18.33 49.32 18.66 50.64 19 52 C6.93962004 52.57028066 6.93962004 52.57028066 3 49 C-0.82216531 44.28690602 -0.38846315 39.66330702 -0.29296875 33.88671875 C-0.28872391 32.91716751 -0.28447906 31.94761627 -0.28010559 30.94868469 C-0.263354 27.861337 -0.22570789 24.77464938 -0.1875 21.6875 C-0.17244863 19.59050424 -0.15876102 17.49349822 -0.14648438 15.39648438 C-0.11346192 10.26406977 -0.06170347 5.13214669 0 0 Z " fill="#000000" transform="translate(380,353)"/>
</svg>
